<?xml version="1.0" encoding="UTF-8"?>
<svg xmlns="http://www.w3.org/2000/svg" version="1.1" viewBox="0 0 1366 768">
  <defs>
    <style>
      .cls-1 {
        fill: #212529;
      }

      .cls-2 {
        fill: #fff;
      }
    </style>
  </defs>
  <!-- Generator: Adobe Illustrator 28.7.1, SVG Export Plug-In . SVG Version: 1.2.0 Build 142)  -->
  <g>
    <g id="Calque_1">
      <rect class="cls-1" x="0" width="1366" height="768"/>
      <g>
        <g>
          <path class="cls-2" d="M207.1,456.1c0-22,6.8-40.5,20.4-55.4,13.6-14.9,31.4-22.4,53.4-22.4s33.1,5,41.4,15.1v-12h44.4v149.4h-44.4v-12.3c-8.2,10.3-22,15.4-41.4,15.4s-39.6-7.5-53.2-22.4c-13.7-14.9-20.5-33.4-20.5-55.4ZM254.9,456.1c0,10.5,3.3,19.2,9.9,26.2,6.6,7,15,10.5,25.3,10.5s20.9-3.2,29.9-9.6v-54.6c-8.6-6.2-18.6-9.3-29.9-9.3s-18.7,3.5-25.3,10.5c-6.6,7-9.9,15.7-9.9,26.2Z"/>
          <path class="cls-2" d="M404,530.8v-149.4h47.2v149.4h-47.2Z"/>
          <path class="cls-2" d="M488.6,381.4h44.4v15.4c3.5-5.6,8.7-9.8,15.6-12.7,6.9-2.9,14-4.3,21.5-4.3s9.6.5,15.7,1.5v42.6c-6.6-.6-12.9-.9-18.8-.9-11.9,0-22.3,2-31.2,5.9v101.9h-47.2v-149.4Z"/>
          <path class="cls-2" d="M623.7,391.9c10.5-9.1,24.9-13.6,43.2-13.6s36.6,3,52.5,9v37.3c-18.9-6.2-36.2-9.3-51.9-9.3s-16.7,3-16.7,9,1.4,4.7,4.2,6.2c2.8,1.4,7.5,2.9,14,4.3l14.2,2.8c15.6,3.5,27.3,8.8,34.9,15.9,7.6,7.1,11.4,17,11.4,29.8s-5.6,27.5-16.8,36.7c-11.2,9.3-27.4,13.9-48.6,13.9s-37.1-3.5-52.8-10.5v-39.2c17.9,8,36.1,12,54.6,12s20.1-3.4,20.1-10.2-1.2-4.7-3.7-6c-2.5-1.3-7.1-2.7-13.9-4.2l-15.4-3.4c-30-6.6-45.1-21.6-45.1-45.1s5.2-26.4,15.7-35.5Z"/>
          <path class="cls-2" d="M757.4,530.8v-213h47.2v114.8h15.4l41.4-51.2h57.1l-58.6,71,62,78.4h-56.8l-46.3-59.9h-14.2v59.9h-47.2Z"/>
          <path class="cls-2" d="M938.6,336.1c0-7.2,2.7-13.4,8-18.7,5.3-5.2,11.8-7.9,19.4-7.9s14.1,2.6,19.4,7.9c5.3,5.2,8,11.5,8,18.7s-2.7,13.7-8,18.8c-5.4,5.4-11.8,8-19.4,8s-14.1-2.6-19.4-7.9c-5.4-5.2-8-11.6-8-19Z"/>
          <path class="cls-2" d="M1074.4,530.8h-47.2v-213h47.2v213Z"/>
          <path class="cls-2" d="M1158.9,530.8h-47.2v-213h47.2v213Z"/>
        </g>
        <rect class="cls-2" x="942.6" y="381.4" width="47.2" height="149.4"/>
        <path class="cls-2" d="M400,336.1c0-7.2,2.7-13.4,8-18.7,5.3-5.2,11.8-7.9,19.4-7.9s14.1,2.6,19.4,7.9c5.3,5.2,8,11.5,8,18.7s-2.7,13.7-8,18.8c-5.4,5.4-11.8,8-19.4,8s-14.1-2.6-19.4-7.9c-5.4-5.2-8-11.6-8-19Z"/>
        <path class="cls-2" d="M470.3,311.8c86.5-61.2,197.1-85.4,301.9-71.2,35.2,5,69.5,16.6,101.1,32.7,18,9.3,35.2,20.1,50.7,32.8l-1,1.7c-36.3-15.8-73-29.3-111.3-38.5-12.4-3.1-24.9-5.6-37.3-8.1-1.1-.2-4.2-.7-5.4-.9-62.4-12.2-127.4-9.4-188.8,7.2-38,10.1-74.7,25.8-108.8,46,0,0-1.1-1.6-1.1-1.6h0Z"/>
      </g>
    </g>
  </g>
</svg>